<?xml version="1.0" encoding="UTF-8" standalone="no"?>
<!DOCTYPE svg PUBLIC "-//W3C//DTD SVG 1.1//EN" "http://www.w3.org/Graphics/SVG/1.1/DTD/svg11.dtd">
<svg width="100%" height="100%" viewBox="0 0 71 82" version="1.1" xmlns="http://www.w3.org/2000/svg" xmlns:xlink="http://www.w3.org/1999/xlink" xml:space="preserve" xmlns:serif="http://www.serif.com/" style="fill-rule:evenodd;clip-rule:evenodd;stroke-linejoin:round;stroke-miterlimit:2;">
    <g>
        <g transform="matrix(1.014286,0,0,1,0,0)">
            <rect x="0" y="0" width="70" height="82" style="fill:rgb(42,94,236);"/>
        </g>
        <g transform="matrix(0.885714,0,0,0.950824,5.011429,3.997986)">
            <path d="M28.6,34.2C22.8,37.4 18.2,42.4 15.3,48.4C13.1,52.8 11.4,57.6 10.4,62.4C9.9,64.9 9.5,67.4 9.4,69.9L10.7,68C10.2,70.7 10,73.5 10,76.3L11.3,74.1L11.2,81.3L14.2,74.1C14.3,74.8 14.5,75.5 14.8,76.2C16.6,71.9 18.2,68.5 19.7,65.7L24,57.9C25.4,55.6 26.9,53.5 28.6,51.4C30.1,49.4 32,47.2 34.4,44.8C35.4,44.1 36.4,43.5 37.5,43L41.5,41.8L47.1,40.5L53,39C56.9,38 60.7,36.6 64.2,34.6C67.6,32.5 69.7,30 70.1,27.2C66.8,27.9 63.4,28.4 60.1,28.7L51.8,28.8C49.3,28.7 46.8,28.8 44.3,29.1C41.6,29.4 38.9,30 36.3,30.9C33.6,31.7 31.1,32.8 28.6,34.2Z" style="fill:white;fill-rule:nonzero;"/>
        </g>
        <g transform="matrix(0.885714,0,0,0.950824,5.011429,3.997986)">
            <path d="M13.9,39.4L12.4,41.6C14.4,40 16.5,38.7 18.7,37.6L33.7,30C39.8,26.8 44.9,22 48.5,16.1C49.8,14.2 50.9,12.1 51.7,9.9C52.2,8.8 52.5,7.8 52.9,6.7C53,6 53,5.4 53,4.7C53,3.8 53,2.9 52.9,2C52.9,1.3 52.7,0.7 52.3,0.1C52,-0.2 51.6,0 51.3,0.5C48.4,4.4 45.1,8.1 41.4,11.3C37.2,14.8 32.6,17.8 27.7,20.3C22.2,22.9 17,26.2 12.2,30C8,33.5 4.2,37.6 1.1,42.1C0.6,42.9 0.2,43.8 0.1,44.8C0.7,44.5 1.4,44.4 2,44.5L0.8,46.9L2.7,45.3C3.2,44.8 3.8,44.4 4.5,44.3L4,45.9C5.5,44.5 7.1,43.2 8.9,42.2L8.2,43.8L10.9,41.4C10.8,41.5 13.9,39.4 13.9,39.4Z" style="fill:white;fill-rule:nonzero;"/>
        </g>
        <g transform="matrix(0.885714,0,0,0.950824,5.011429,3.997986)">
            <path d="M14.5,4.7C13.7,5.7 13.2,6.8 13,8C12.7,9.3 12.7,10.6 13,11.8C13.3,13 13.8,14.2 14.6,15.2C15.4,16.2 16.4,17.1 17.6,17.7C18.8,18.3 20,18.8 21.3,19.2C22.7,19.5 24.2,19.5 25.6,19.2C27,18.9 28.3,18.4 29.4,17.7C30.5,17 31.5,16.1 32.4,15.2C33.1,14.2 33.6,13.1 33.9,12C34.2,10.8 34.2,9.5 33.9,8.3C33.6,7 33,5.7 32.2,4.7C31.4,3.7 30.4,2.8 29.2,2.2C28.1,1.5 26.8,1 25.5,0.7C24.1,0.4 22.6,0.4 21.2,0.7C19.8,0.9 18.5,1.4 17.4,2.2C16.3,2.8 15.3,3.7 14.5,4.7Z" style="fill:white;fill-rule:nonzero;"/>
        </g>
    </g>
</svg>
