<svg version="1.1" id="Layer_1" xmlns="http://www.w3.org/2000/svg" xmlns:xlink="http://www.w3.org/1999/xlink" x="0px" y="0px" viewBox="0 0 70.1 81.3" style="enable-background:new 0 0 70.1 81.3;" xml:space="preserve">
 <style type="text/css">
  .st0{fill:#FFFFFF;}
 </style>
 <g>
  <path class="st0" d="M28.6,34.2c-5.8,3.2-10.4,8.2-13.3,14.2c-2.2,4.4-3.9,9.2-4.9,14c-0.5,2.5-0.9,5-1,7.5l1.3-1.9
		c-0.5,2.7-0.7,5.5-0.7,8.3l1.3-2.2l-0.1,7.2l3-7.2c0.1,0.7,0.3,1.4,0.6,2.1c1.8-4.3,3.4-7.7,4.9-10.5l4.3-7.8
		c1.4-2.3,2.9-4.4,4.6-6.5c1.5-2,3.4-4.2,5.8-6.6c1-0.7,2-1.3,3.1-1.8l4-1.2l5.6-1.3L53,39c3.9-1,7.7-2.4,11.2-4.4
		c3.4-2.1,5.5-4.6,5.9-7.4c-3.3,0.7-6.7,1.2-10,1.5l-8.3,0.1c-2.5-0.1-5,0-7.5,0.3c-2.7,0.3-5.4,0.9-8,1.8
		C33.6,31.7,31.1,32.8,28.6,34.2z">
  </path>
  <path class="st0" d="M13.9,39.4l-1.5,2.2c2-1.6,4.1-2.9,6.3-4L33.7,30c6.1-3.2,11.2-8,14.8-13.9c1.3-1.9,2.4-4,3.2-6.2
		c0.5-1.1,0.8-2.1,1.2-3.2C53,6,53,5.4,53,4.7c0-0.9,0-1.8-0.1-2.7c0-0.7-0.2-1.3-0.6-1.9c-0.3-0.3-0.7-0.1-1,0.4
		c-2.9,3.9-6.2,7.6-9.9,10.8c-4.2,3.5-8.8,6.5-13.7,9c-5.5,2.6-10.7,5.9-15.5,9.7c-4.2,3.5-8,7.6-11.1,12.1c-0.5,0.8-0.9,1.7-1,2.7
		c0.6-0.3,1.3-0.4,1.9-0.3l-1.2,2.4l1.9-1.6c0.5-0.5,1.1-0.9,1.8-1L4,45.9c1.5-1.4,3.1-2.7,4.9-3.7l-0.7,1.6l2.7-2.4
		C10.8,41.5,13.9,39.4,13.9,39.4z">
  </path>
  <path class="st0" d="M14.5,4.7C13.7,5.7,13.2,6.8,13,8c-0.3,1.3-0.3,2.6,0,3.8c0.3,1.2,0.8,2.4,1.6,3.4c0.8,1,1.8,1.9,3,2.5
		c1.2,0.6,2.4,1.1,3.7,1.5c1.4,0.3,2.9,0.3,4.3,0c1.4-0.3,2.7-0.8,3.8-1.5c1.1-0.7,2.1-1.6,3-2.5c0.7-1,1.2-2.1,1.5-3.2
		c0.3-1.2,0.3-2.5,0-3.7C33.6,7,33,5.7,32.2,4.7c-0.8-1-1.8-1.9-3-2.5c-1.1-0.7-2.4-1.2-3.7-1.5c-1.4-0.3-2.9-0.3-4.3,0
		c-1.4,0.2-2.7,0.7-3.8,1.5C16.3,2.8,15.3,3.7,14.5,4.7z">
  </path>
 </g>
</svg>